<?xml version="1.0" encoding="UTF-8"?>
<svg id="Layer_1" data-name="Layer 1" xmlns="http://www.w3.org/2000/svg" viewBox="0 0 919.74 131.26">
  <defs>
    <style>
      .cls-1 {
        fill: #c1272d;
      }
    </style>
  </defs>
  <g>
    <path d="m28.44,109.03L60.72,22.06l26.03-.11,32.28,87.08h-24.55l-5.91-16.14h-30.12l-5.8,16.14h-24.21Zm35.7-33.65h18.53l-9.21-26.6-9.32,26.6Z"/>
    <path d="m172.01,18.77c17.51,0,30.35,6.82,39.33,21.83l-18.19,10s-5.91-12.05-21.37-12.05-21.6,12.16-21.6,27.96c0,14.78,6.82,26.6,23.65,26.6,9.66,0,18.53-7.39,19.33-15.46h-20.01v-18.19h43.65v4.77c0,25.8-11.94,47.97-44.56,47.97-27.74,0-45.47-21.26-45.47-46.61,0-26.71,19.89-46.83,45.24-46.83Z"/>
    <path d="m230.77,109.03V21.95h22.74v87.08h-22.74Z"/>
    <path d="m272.94,109.03V21.95h22.74v67.3h27.51v19.78h-50.25Z"/>
    <path d="m337.16,21.95h50.47v19.78h-27.74v14.1h26.15v19.33h-26.15v14.55h28.19v19.33h-50.93V21.95Z"/>
    <path d="m480.96,19.45c9.21,0,14.89,1.14,22.96,5.46v23.64c-5.23-4.32-11.03-7.62-21.83-7.62-14.78,0-22.96,10.8-22.96,25.58,0,13.98,10.34,23.3,24.1,23.3,8.41,0,14.66-3.3,20.46-7.16v22.85c-7.16,3.18-12.85,5.8-21.94,5.8-25.12,0-45.58-18.19-45.58-45.02s19.21-46.83,44.79-46.83Z"/>
    <path d="m656.46,21.95h36.38c23.42,0,41.38,17.39,41.38,42.52s-16.94,44.56-41.15,44.56h-36.6V21.95Zm23.08,67.52h10c13.41,0,21.71-10.69,21.71-25.35,0-13.3-8.87-23.19-21.03-23.19h-10.69v48.54Z"/>
    <path d="m748.98,21.95h50.47v19.78h-27.74v14.1h26.15v19.33h-26.15v14.55h28.19v19.33h-50.93V21.95Z"/>
    <path d="m841.29,78.33v30.69h-22.74V21.95h34.67c15.46,0,29.78,8.75,29.78,27.28,0,11.94-5.23,20.01-15.01,23.76,2.27,3.3,23.3,36.04,23.3,36.04h-27.17s-15.8-26.71-18.3-30.69h-4.55Zm-.46-17.17h7.28c6.25,0,11.71-2.61,11.71-10.91,0-7.39-3.98-10.91-11.48-10.91h-7.5v21.83Z"/>
  </g>
  <g>
    <path class="cls-1" d="m514.41,77.63l37.89,37.89v-29.15l-13.43-13.43c-4.04-4.04-4.04-10.59,0-14.63l13.43-13.43V15.74l-37.89,37.89c-6.63,6.63-6.63,17.37,0,24Z"/>
    <path class="cls-1" d="m639.74,53.63l-39.64-39.64v29.15l15.18,15.18c4.04,4.04,4.04,10.59,0,14.63l-15.18,15.18v29.15l39.64-39.64c6.63-6.63,6.63-17.37,0-24Z"/>
    <rect class="cls-1" x="552.83" y="53.11" width="46.74" height="24.26" rx="7" ry="7" transform="translate(122.63 426.54) rotate(-45)"/>
  </g>
</svg>